<svg xmlns="http://www.w3.org/2000/svg" xmlns:xlink="http://www.w3.org/1999/xlink" width="500" zoomAndPan="magnify" viewBox="0 0 375 74.999997" height="100" preserveAspectRatio="xMidYMid meet" version="1.0"><defs><g/></defs><g fill="#fad000" fill-opacity="1"><g transform="translate(6.255362, 58.739366)"><g><path d="M 23.265625 -33.0625 C 23.265625 -33.0625 24.03125 -27.894531 23.296875 -24.703125 C 23.296875 -24.703125 17.203125 -24 16.277344 -24.09375 C 15.351562 -24 13.46875 -24.382812 13.46875 -24.382812 C 13.46875 -24.382812 13.085938 -26.648438 13.148438 -27.507812 C 13.050781 -28.371094 13.46875 -32.902344 13.46875 -32.902344 Z M 15.0625 -16.820312 C 19.691406 -16.4375 22.625 -15.511719 36.222656 -16.53125 C 36.796875 -23.742188 37.945312 -38.648438 36.796875 -47.359375 C 36.796875 -47.359375 25.210938 -49.691406 14.9375 -48.445312 C 13.722656 -48.285156 8.488281 -47.230469 7.277344 -46.785156 L 5.585938 -45.125 C 5.585938 -45.125 6.222656 -24.636719 6.765625 -0.796875 L 13.691406 -0.320312 L 15.0625 -0.988281 Z M 15.0625 -16.820312 "/></g></g></g><g fill="#fad000" fill-opacity="1"><g transform="translate(45.918907, 58.739366)"><g><path d="M 37.308594 0.191406 L 38.074219 -4.5625 C 38.074219 -7.4375 37.882812 -15.796875 37.65625 -18.765625 C 33.160156 -19.277344 24.636719 -20.167969 16.148438 -20.234375 C 16.371094 -31.53125 16.5625 -47.105469 16.371094 -47.136719 C 11.265625 -48.316406 7.976562 -48.03125 7.976562 -48.03125 L 6.382812 -47.550781 C 6.382812 -47.550781 5.554688 -14.871094 6.605469 -1.148438 L 7.691406 0.320312 L 36.574219 0.925781 Z M 37.308594 0.191406 "/></g></g></g><g fill="#fad000" fill-opacity="1"><g transform="translate(85.008081, 58.739366)"><g><path d="M 5.394531 -47.167969 C 3.894531 -32.136719 2.519531 -18.605469 1.722656 -2.265625 L 2.808594 -1.054688 L 18.160156 -0.289062 L 18.636719 -10.117188 L 24.414062 -9.734375 C 25.625 -1.339844 25.371094 -2.808594 25.945312 -0.734375 C 28.59375 -0.636719 32.773438 -0.796875 35.074219 -0.796875 C 33.542969 -16.820312 31.242188 -31.277344 29.390625 -47.230469 C 26.296875 -47.519531 13.339844 -49.113281 5.394531 -47.167969 Z M 16.820312 -18.285156 L 16.660156 -27.636719 C 16.660156 -27.636719 16.4375 -28.625 24.0625 -28.085938 L 24.703125 -17.839844 Z M 16.820312 -18.285156 "/></g></g></g><g fill="#fad000" fill-opacity="1"><g transform="translate(121.927408, 58.739366)"><g><path d="M 24.765625 -0.605469 C 24.765625 -0.605469 24.667969 -15.320312 24.925781 -20.167969 C 30.542969 -25.722656 43.339844 -39.382812 43.210938 -39.507812 C 39.414062 -43.117188 30.160156 -48.03125 30.160156 -48.03125 L 28.53125 -48.445312 C 28.53125 -48.445312 24.859375 -43.179688 19.722656 -34.785156 C 14.808594 -41.648438 10.820312 -47.105469 10.691406 -47.039062 C 5.871094 -44.933594 3.414062 -42.734375 3.414062 -42.734375 L 2.425781 -41.390625 C 2.425781 -41.390625 9 -32.96875 15.351562 -24.382812 L 15.414062 -24.222656 C 15.191406 -21.253906 14.808594 -12.542969 15.542969 -3.0625 L 16.628906 -1.59375 Z M 24.765625 -0.605469 "/></g></g></g><g fill="#fad000" fill-opacity="1"><g transform="translate(167.430391, 58.739366)"><g><path d="M 2.746094 -20.105469 C 3.511719 -20.167969 9.765625 -20.328125 13.402344 -20.488281 C 13.4375 -13.179688 13.5625 -7.246094 13.945312 -2.425781 L 15.03125 -0.957031 L 22.851562 -0.289062 C 22.851562 -0.289062 23.136719 -9.957031 23.394531 -21 C 29.679688 -21.320312 32.488281 -21.636719 35.648438 -21.828125 C 36.285156 -25.882812 35.328125 -44.199219 35.105469 -47.167969 C 29.550781 -47.808594 8.011719 -49.5 2.457031 -48.796875 C 2.457031 -48.796875 0.382812 -30.925781 2.746094 -20.105469 Z M 2.746094 -20.105469 "/></g></g></g><g fill="#fad000" fill-opacity="1"><g transform="translate(204.828366, 58.739366)"><g><path d="M 24.222656 -25.53125 C 23.96875 -23.011719 23.777344 -14.265625 22.371094 -14.167969 C 22.371094 -14.167969 21.0625 -13.660156 21.0625 -13.722656 C 21.0625 -13.820312 14.359375 -13.246094 13.691406 -13.820312 L 12.828125 -14.96875 L 12.253906 -18.253906 C 12.253906 -18.253906 11.585938 -25.945312 12.191406 -26.871094 C 12.191406 -26.871094 13.5 -28.148438 20.265625 -28.148438 C 23.105469 -28.148438 24.445312 -28.050781 24.222656 -25.53125 Z M 35.839844 -46.53125 C 18.253906 -50.265625 6.414062 -46.53125 6.414062 -46.53125 L 4.277344 -44.359375 C 1.4375 -25.722656 6.671875 -4.46875 6.671875 -4.46875 L 7.277344 -2.265625 C 14.519531 4.882812 29.902344 0.382812 29.902344 0.480469 C 29.902344 0.574219 32.648438 -2.171875 32.648438 -2.171875 C 40.148438 -18.957031 37.082031 -44.933594 37.082031 -44.933594 Z M 35.839844 -46.53125 "/></g></g></g><g fill="#fad000" fill-opacity="1"><g transform="translate(245.60875, 58.739366)"><g><path d="M 23.265625 -33.0625 C 23.265625 -33.0625 24.03125 -27.894531 23.296875 -24.703125 C 23.296875 -24.703125 17.203125 -24 16.277344 -24.09375 C 15.351562 -24 13.46875 -24.382812 13.46875 -24.382812 C 13.46875 -24.382812 13.085938 -26.648438 13.148438 -27.507812 C 13.050781 -28.371094 13.46875 -32.902344 13.46875 -32.902344 Z M 15.0625 -16.820312 C 19.691406 -16.4375 22.625 -15.511719 36.222656 -16.53125 C 36.796875 -23.742188 37.945312 -38.648438 36.796875 -47.359375 C 36.796875 -47.359375 25.210938 -49.691406 14.9375 -48.445312 C 13.722656 -48.285156 8.488281 -47.230469 7.277344 -46.785156 L 5.585938 -45.125 C 5.585938 -45.125 6.222656 -24.636719 6.765625 -0.796875 L 13.691406 -0.320312 L 15.0625 -0.988281 Z M 15.0625 -16.820312 "/></g></g></g><g fill="#fad000" fill-opacity="1"><g transform="translate(285.272295, 58.739366)"><g><path d="M 4.339844 -14.425781 C 2.328125 -11.265625 3.414062 -0.414062 3.414062 -0.414062 C 5.105469 0.0625 17.167969 1.117188 21.703125 -0.445312 C 21.703125 -0.445312 22.882812 -7.691406 22.242188 -11.746094 C 21.382812 -11.808594 17.96875 -11.96875 17.136719 -12.0625 C 17.328125 -18.765625 17.585938 -28.371094 17.679688 -33.988281 C 18.574219 -34.082031 22.722656 -34.242188 23.519531 -34.273438 C 24.160156 -38.328125 22.976562 -48.445312 22.976562 -48.445312 C 18.445312 -50.007812 5.105469 -48.957031 3.414062 -48.476562 C 3.414062 -48.476562 3.671875 -33.09375 4.339844 -32.550781 L 4.914062 -32.105469 L 9.160156 -31.976562 C 9 -26.167969 9.128906 -14.394531 9.128906 -14.394531 Z M 4.339844 -14.425781 "/></g></g></g><g fill="#fad000" fill-opacity="1"><g transform="translate(313.129327, 58.739366)"><g><path d="M 5.394531 -47.167969 C 3.894531 -32.136719 2.519531 -18.605469 1.722656 -2.265625 L 2.808594 -1.054688 L 18.160156 -0.289062 L 18.636719 -10.117188 L 24.414062 -9.734375 C 25.625 -1.339844 25.371094 -2.808594 25.945312 -0.734375 C 28.59375 -0.636719 32.773438 -0.796875 35.074219 -0.796875 C 33.542969 -16.820312 31.242188 -31.277344 29.390625 -47.230469 C 26.296875 -47.519531 13.339844 -49.113281 5.394531 -47.167969 Z M 16.820312 -18.285156 L 16.660156 -27.636719 C 16.660156 -27.636719 16.4375 -28.625 24.0625 -28.085938 L 24.703125 -17.839844 Z M 16.820312 -18.285156 "/></g></g></g><g fill="#fad000" fill-opacity="1"><g transform="translate(350.048642, 58.739366)"><g><path d="M 3.894531 -46.914062 C 3.128906 -31.5625 6.574219 1.339844 6.574219 1.339844 L 13.722656 0.703125 L 16.148438 -1.210938 L 21.320312 -48.125 C 12.476562 -49.050781 3.894531 -46.914062 3.894531 -46.914062 Z M 16.339844 10.085938 C 16.339844 9.796875 16.339844 9.542969 16.179688 9.285156 C 15.382812 7.46875 13.945312 7.117188 11.96875 7.117188 C 9.636719 7.117188 5.746094 8.136719 5.746094 10.851562 C 5.746094 13.308594 8.457031 14.808594 10.628906 14.808594 C 13.019531 14.808594 16.339844 12.476562 16.339844 10.085938 Z M 16.339844 10.085938 "/></g></g></g><path stroke-linecap="butt" transform="matrix(0.723481, 0, 0, 0.723481, 0.0000075, 1.16273)" fill="none" stroke-linejoin="miter" d="M 37.373538 31.301243 C 37.373538 31.301243 38.437188 38.444439 37.422131 42.85562 C 37.422131 42.85562 28.993915 43.827483 27.714295 43.697901 C 26.434675 43.827483 23.832241 43.298357 23.832241 43.298357 C 23.832241 43.298357 23.303115 40.166797 23.394902 38.973565 C 23.259921 37.785732 23.832241 31.522612 23.832241 31.522612 Z M 26.04053 53.751288 C 32.433232 54.280414 36.493461 55.560034 55.282821 54.150832 C 56.076509 44.183833 57.669285 23.580328 56.076509 11.54002 C 56.076509 11.54002 40.067759 8.316673 25.862355 10.039031 C 24.18859 10.2604 16.953607 11.712796 15.274443 12.333709 L 12.936572 14.628386 C 12.936572 14.628386 13.822047 42.947407 14.572542 75.898976 L 24.139997 76.557683 L 26.04053 75.634413 Z M 111.607706 77.264984 L 112.665957 70.694107 C 112.665957 66.720266 112.401394 55.16589 112.093637 51.062466 C 105.873711 50.355166 94.097966 49.124139 82.360016 49.032352 C 82.673172 33.417746 82.937735 11.890971 82.673172 11.847777 C 75.610964 10.217206 71.070202 10.611351 71.070202 10.611351 L 68.861913 11.275457 C 68.861913 11.275457 67.717273 56.44551 69.175069 75.413044 L 70.670658 77.443159 L 110.592648 78.280041 Z M 121.526112 11.804583 C 119.452803 32.580863 117.557669 51.283835 116.450825 73.868861 L 117.951814 75.542626 L 139.170832 76.600877 L 139.82954 63.016386 L 147.815017 63.545512 C 149.494181 75.148481 149.137832 73.118367 149.93152 75.985364 C 153.597605 76.120345 159.374793 75.898976 162.549547 75.898976 C 160.433044 53.751288 157.25829 33.768696 154.69905 11.712796 C 150.417452 11.318651 132.508168 9.110362 121.526112 11.804583 Z M 137.318892 51.726573 L 137.097524 38.800789 C 137.097524 38.800789 136.789767 37.434781 147.329086 38.179877 L 148.214561 52.342086 Z M 199.329178 76.163539 C 199.329178 76.163539 199.199596 55.824597 199.550547 49.124139 C 207.314656 41.446418 225.00257 22.565271 224.829795 22.392495 C 219.576333 17.403596 206.78553 10.611351 206.78553 10.611351 L 204.539446 10.039031 C 204.539446 10.039031 199.464159 17.317208 192.364157 28.920178 C 185.566512 19.433711 180.053887 11.890971 179.881111 11.977359 C 173.218448 14.892949 169.822325 17.932722 169.822325 17.932722 L 168.456317 19.790061 C 168.456317 19.790061 177.54324 31.430825 186.317007 43.298357 L 186.408794 43.519726 C 186.095638 47.62315 185.566512 59.663458 186.58157 72.767416 L 188.082559 74.792132 Z M 231.789417 49.210526 C 232.847668 49.124139 241.491853 48.90277 246.523946 48.681401 C 246.56714 58.783381 246.745315 66.984829 247.274441 73.647492 L 248.77003 75.677607 L 259.579311 76.600877 C 259.579311 76.600877 259.978855 63.237755 260.329806 47.9741 C 269.017185 47.531362 272.89924 47.094024 277.267226 46.829461 C 278.152701 41.225049 276.824488 15.908006 276.516731 11.804583 C 268.844409 10.919108 239.067594 8.581236 231.389873 9.553099 C 231.389873 9.553099 228.522876 34.254628 231.789417 49.210526 Z M 313.166781 41.71098 C 312.81583 45.193491 312.551267 57.282392 310.60754 57.411974 C 310.60754 57.411974 308.798795 58.119275 308.798795 58.032887 C 308.798795 57.897906 299.539096 58.691594 298.610426 57.897906 L 297.422593 56.310529 L 296.628905 51.769767 C 296.628905 51.769767 295.700235 41.138661 296.537118 39.859041 C 296.537118 39.859041 298.345864 38.093489 307.697349 38.093489 C 311.622598 38.093489 313.474538 38.22847 313.166781 41.71098 Z M 329.224124 12.684659 C 304.91674 7.522985 288.55164 12.684659 288.55164 12.684659 L 285.598255 15.686638 C 281.673007 41.446418 288.90799 70.823689 288.90799 70.823689 L 289.744872 73.868861 C 299.760465 83.749473 321.017278 77.529547 321.017278 77.659129 C 321.017278 77.79411 324.812944 73.998443 324.812944 73.998443 C 335.179487 50.797903 330.946482 14.892949 330.946482 14.892949 Z M 368.212045 31.301243 C 368.212045 31.301243 369.270297 38.444439 368.255239 42.85562 C 368.255239 42.85562 359.832423 43.827483 358.552803 43.697901 C 357.273183 43.827483 354.670748 43.298357 354.670748 43.298357 C 354.670748 43.298357 354.141623 40.166797 354.228011 38.973565 C 354.098429 37.785732 354.670748 31.522612 354.670748 31.522612 Z M 356.873639 53.751288 C 363.27174 54.280414 367.331969 55.560034 386.121329 54.150832 C 386.915017 44.183833 388.502394 23.580328 386.915017 11.54002 C 386.915017 11.54002 370.900868 8.316673 356.700863 10.039031 C 355.021699 10.2604 347.786716 11.712796 346.112951 12.333709 L 343.77508 14.628386 C 343.77508 14.628386 344.655156 42.947407 345.40565 75.898976 L 354.978505 76.557683 L 356.873639 75.634413 Z M 396.876617 57.061023 C 394.096008 61.429009 395.596997 76.428102 395.596997 76.428102 C 397.934869 77.086809 414.607726 78.544604 420.870845 76.384908 C 420.870845 76.384908 422.506815 66.369315 421.62134 60.764903 C 420.433507 60.678515 415.71457 60.457146 414.564532 60.327564 C 414.829094 51.062466 415.185444 37.785732 415.315026 30.021623 C 416.551452 29.886642 422.285447 29.670672 423.386892 29.622079 C 424.272367 24.023066 422.636397 10.039031 422.636397 10.039031 C 416.373277 7.879335 397.934869 9.331731 395.596997 9.995837 C 395.596997 9.995837 395.947948 31.258049 396.876617 32.008544 L 397.670306 32.624057 L 403.539281 32.802232 C 403.317912 40.830904 403.496087 57.104217 403.496087 57.104217 Z M 436.836402 11.804583 C 434.763093 32.580863 432.867959 51.283835 431.761115 73.868861 L 433.262104 75.542626 L 454.481122 76.600877 L 455.145229 63.016386 L 463.125307 63.545512 C 464.804471 75.148481 464.448122 73.118367 465.24181 75.985364 C 468.907895 76.120345 474.685083 75.898976 477.859837 75.898976 C 475.743334 53.751288 472.56858 33.768696 470.00934 11.712796 C 465.727742 11.318651 447.818458 9.110362 436.836402 11.804583 Z M 452.629182 51.726573 L 452.407814 38.800789 C 452.407814 38.800789 452.100057 37.434781 462.639376 38.179877 L 463.524851 52.342086 Z M 485.791322 12.155534 C 484.733071 33.374552 489.500601 78.852361 489.500601 78.852361 L 499.381212 77.972285 L 502.734141 75.321257 L 509.877337 10.481769 C 497.658854 9.202149 485.791322 12.155534 485.791322 12.155534 Z M 502.998704 90.941262 C 502.998704 90.541718 502.998704 90.190768 502.777335 89.834418 C 501.67589 87.32377 499.688969 86.837839 496.951554 86.837839 C 493.733606 86.837839 488.350563 88.247041 488.350563 91.999513 C 488.350563 95.395636 492.103035 97.468945 495.099614 97.468945 C 498.409349 97.468945 502.998704 94.245598 502.998704 90.941262 Z M 502.998704 90.941262 " stroke="#0d82bb" stroke-width="3.501055" stroke-opacity="1" stroke-miterlimit="4"/></svg>