<svg xmlns="http://www.w3.org/2000/svg" xmlns:xlink="http://www.w3.org/1999/xlink" width="500" zoomAndPan="magnify" viewBox="0 0 375 74.999997" height="100" preserveAspectRatio="xMidYMid meet" version="1.0"><defs><g/></defs><g fill="#0d82bb" fill-opacity="1"><g transform="translate(14.432915, 52.298224)"><g><path d="M 17.921875 -25.945312 L 13.007812 -32.605469 C 10.359375 -34.035156 5.289062 -33.398438 5.289062 -33.398438 L 4.1875 -33.066406 C 4.1875 -33.066406 3.617188 -10.273438 4.34375 -0.792969 L 5.09375 0.21875 L 12.210938 0.683594 L 12.917969 0.464844 C 12.917969 0.464844 13.050781 -4.253906 13.027344 -4.71875 C 13.027344 -5.203125 12.785156 -13.25 12.785156 -13.25 L 17.238281 -7.097656 L 22.109375 -10.734375 L 22.289062 0.660156 L 28.347656 0.242188 C 28.347656 0.242188 29.230469 -31.171875 28.945312 -31.238281 C 25.417969 -32.054688 22.484375 -31.855469 22.484375 -31.855469 L 21.382812 -31.523438 Z M 17.921875 -25.945312 "/></g></g></g><g fill="#0d82bb" fill-opacity="1"><g transform="translate(46.282104, 52.298224)"><g><path d="M 3 -9.964844 C 1.609375 -7.78125 2.359375 -0.285156 2.359375 -0.285156 C 3.527344 0.0429688 11.859375 0.773438 14.992188 -0.308594 C 14.992188 -0.308594 15.804688 -5.3125 15.363281 -8.113281 C 14.769531 -8.15625 12.410156 -8.265625 11.839844 -8.332031 C 11.96875 -12.960938 12.148438 -19.597656 12.210938 -23.476562 C 12.828125 -23.542969 15.695312 -23.652344 16.246094 -23.675781 C 16.6875 -26.476562 15.871094 -33.464844 15.871094 -33.464844 C 12.742188 -34.542969 3.527344 -33.816406 2.359375 -33.484375 C 2.359375 -33.484375 2.535156 -22.859375 3 -22.484375 L 3.394531 -22.175781 L 6.328125 -22.089844 C 6.214844 -18.078125 6.304688 -9.941406 6.304688 -9.941406 Z M 3 -9.964844 "/></g></g></g><g fill="#0d82bb" fill-opacity="1"><g transform="translate(65.523866, 52.298224)"><g><path d="M 19.882812 -14.042969 C 19.882812 -14.042969 17.722656 -19.355469 17.527344 -19.796875 C 17.328125 -20.238281 12.875 -29.230469 12.875 -29.230469 L 12.851562 -29.253906 C 9.324219 -30.070312 4.851562 -29.871094 4.851562 -29.871094 L 3.746094 -29.539062 C 3.746094 -29.539062 3.175781 -10.273438 3.902344 -0.792969 L 4.652344 0.21875 L 10.230469 0.464844 L 10.933594 0.242188 C 10.933594 0.242188 11.066406 -4.253906 11.042969 -4.71875 C 11.042969 -5.179688 10.800781 -11.707031 10.800781 -11.707031 C 10.800781 -11.707031 14.59375 -4.960938 14.835938 -4.5625 C 15.078125 -4.167969 17.878906 0.441406 17.878906 0.441406 L 26.367188 0.683594 C 26.367188 0.683594 27.246094 -32.714844 26.960938 -32.78125 C 23.433594 -33.597656 21.164062 -33.398438 21.164062 -33.398438 C 21.164062 -33.398438 20.171875 -33.355469 20.0625 -33.066406 Z M 19.882812 -14.042969 "/></g></g></g><g fill="#0d82bb" fill-opacity="1"><g transform="translate(94.397517, 52.298224)"><g><path d="M 3 -9.964844 C 1.609375 -7.78125 2.359375 -0.285156 2.359375 -0.285156 C 3.527344 0.0429688 11.859375 0.773438 14.992188 -0.308594 C 14.992188 -0.308594 15.804688 -5.3125 15.363281 -8.113281 C 14.769531 -8.15625 12.410156 -8.265625 11.839844 -8.332031 C 11.96875 -12.960938 12.148438 -19.597656 12.210938 -23.476562 C 12.828125 -23.542969 15.695312 -23.652344 16.246094 -23.675781 C 16.6875 -26.476562 15.871094 -33.464844 15.871094 -33.464844 C 12.742188 -34.542969 3.527344 -33.816406 2.359375 -33.484375 C 2.359375 -33.484375 2.535156 -22.859375 3 -22.484375 L 3.394531 -22.175781 L 6.328125 -22.089844 C 6.214844 -18.078125 6.304688 -9.941406 6.304688 -9.941406 Z M 3 -9.964844 "/></g></g></g><g fill="#0d82bb" fill-opacity="1"><g transform="translate(113.639279, 52.298224)"><g><path d="M 3.019531 -34.148438 C 3.019531 -34.148438 -0.175781 -9.875 5.554688 1.035156 C 5.554688 1.035156 18.097656 0 23.585938 -0.660156 L 23.71875 -6.746094 L 26.851562 -6.988281 L 26.34375 -12.808594 C 20.546875 -13.335938 14.550781 -12.148438 14.550781 -12.148438 L 14.746094 -9.390625 L 17.105469 -9.238281 L 17.28125 -5.597656 C 16.578125 -5.578125 15.738281 -5.554688 14.683594 -5.554688 C 14.261719 -5.554688 10.097656 -5.664062 9.765625 -6.171875 C 9.589844 -6.546875 8.882812 -13.933594 8.882812 -13.933594 C 8.882812 -13.933594 8.6875 -15.320312 9.546875 -16.535156 C 10.292969 -17.589844 19.046875 -17.238281 20.480469 -17.503906 C 20.480469 -17.4375 20.5 -17.4375 20.523438 -17.503906 L 20.480469 -17.503906 C 20.433594 -17.878906 21.007812 -21.230469 21.007812 -21.230469 C 21.007812 -23.214844 20.875 -30.972656 20.722656 -33.023438 C 16.886719 -33.464844 6.855469 -34.632812 3.019531 -34.148438 Z M 3.019531 -34.148438 "/></g></g></g><g fill="#0d82bb" fill-opacity="1"><g transform="translate(140.992113, 52.298224)"><g><path d="M 3.726562 -32.582031 C 2.691406 -22.199219 1.742188 -12.851562 1.191406 -1.566406 L 1.941406 -0.726562 L 12.542969 -0.199219 L 12.875 -6.988281 L 16.863281 -6.722656 C 17.703125 -0.925781 17.527344 -1.941406 17.921875 -0.507812 C 19.753906 -0.441406 22.640625 -0.550781 24.226562 -0.550781 C 23.167969 -11.617188 21.582031 -21.605469 20.304688 -32.625 C 18.164062 -32.824219 9.214844 -33.925781 3.726562 -32.582031 Z M 11.617188 -12.632812 L 11.507812 -19.089844 C 11.507812 -19.089844 11.351562 -19.773438 16.621094 -19.398438 L 17.0625 -12.324219 Z M 11.617188 -12.632812 "/></g></g></g><g fill="#0d82bb" fill-opacity="1"><g transform="translate(166.493507, 52.298224)"><g><path d="M 17.921875 -25.945312 L 13.007812 -32.605469 C 10.359375 -34.035156 5.289062 -33.398438 5.289062 -33.398438 L 4.1875 -33.066406 C 4.1875 -33.066406 3.617188 -10.273438 4.34375 -0.792969 L 5.09375 0.21875 L 12.210938 0.683594 L 12.917969 0.464844 C 12.917969 0.464844 13.050781 -4.253906 13.027344 -4.71875 C 13.027344 -5.203125 12.785156 -13.25 12.785156 -13.25 L 17.238281 -7.097656 L 22.109375 -10.734375 L 22.289062 0.660156 L 28.347656 0.242188 C 28.347656 0.242188 29.230469 -31.171875 28.945312 -31.238281 C 25.417969 -32.054688 22.484375 -31.855469 22.484375 -31.855469 L 21.382812 -31.523438 Z M 17.921875 -25.945312 "/></g></g></g><g fill="#0d82bb" fill-opacity="1"><g transform="translate(198.342695, 52.298224)"><g><path d="M 25.308594 -24.558594 C 26.429688 -28.019531 25.417969 -33 25.417969 -33 L 24.027344 -33.089844 L 5.113281 -32.605469 C 5.113281 -32.605469 4.296875 -30.839844 4.210938 -29.429688 C 4.121094 -28.019531 3.988281 -5.621094 4.980469 -2.976562 C 5.46875 -1.675781 5.90625 -0.332031 6.394531 -0.21875 C 6.878906 -0.109375 12.476562 0.332031 19.664062 0.265625 C 26.851562 0.199219 25.261719 0.375 25.261719 0.375 L 25.042969 -5.886719 C 25.042969 -5.886719 24.007812 -6.570312 24.050781 -6.523438 C 24.09375 -6.480469 24.667969 -6.4375 24.667969 -6.4375 L 13.910156 -6.523438 L 13.359375 -7.121094 L 13.511719 -12.699219 C 20.699219 -12.765625 24.382812 -13.027344 24.382812 -13.027344 L 24.382812 -15.761719 C 24.382812 -15.761719 24.007812 -17.988281 24.050781 -17.945312 C 24.09375 -17.898438 21.363281 -17.855469 21.363281 -17.855469 L 15.652344 -17.835938 C 14.683594 -20.566406 14.945312 -23.917969 14.945312 -23.917969 C 23.851562 -24.359375 25.308594 -24.558594 25.308594 -24.558594 Z M 25.308594 -24.558594 "/></g></g></g><g fill="#0d82bb" fill-opacity="1"><g transform="translate(227.723297, 52.298224)"><g><path d="M 26.742188 -0.550781 C 27.203125 -0.75 27.6875 -11.726562 27.6875 -11.726562 L 27.335938 -12.101562 L 8.6875 -13.09375 L 8.996094 -16.179688 C 8.996094 -16.179688 23.960938 -16.070312 24.46875 -16.179688 C 24.953125 -16.269531 24.382812 -32.867188 23.960938 -32.957031 C 22.839844 -33.175781 4.628906 -31.988281 4.234375 -31.679688 C 4.1875 -31.65625 3.617188 -30.863281 3.617188 -30.863281 C 2.578125 -29.496094 2.292969 -11.132812 2.535156 -11.132812 C 2.535156 -11.132812 5.777344 -10.164062 14.21875 -9.742188 C 14.042969 -8.378906 13.734375 -6.503906 13.734375 -6.503906 C 13.226562 -6.503906 3.945312 -7.78125 3.945312 -7.78125 C 3.878906 -7.738281 3.4375 -6.964844 3.4375 -6.964844 C 3.4375 -6.964844 3.460938 -1.675781 3.8125 -0.992188 Z M 26.742188 -0.550781 "/></g></g></g><g fill="#0d82bb" fill-opacity="1"><g transform="translate(256.839406, 52.298224)"><g><path d="M 4.078125 -31.390625 C 4.078125 -31.390625 4.476562 -1.210938 4.542969 -1.167969 C 4.5625 -1.144531 5.554688 -0.75 5.621094 -0.726562 C 5.6875 -0.707031 11.882812 -0.441406 11.882812 -0.441406 C 11.816406 -0.441406 12.367188 -12.585938 12.367188 -12.585938 C 12.367188 -12.585938 16.554688 -12.699219 16.554688 -12.632812 C 16.554688 -12.566406 16.996094 -1.015625 16.996094 -0.660156 C 16.996094 -0.308594 26.101562 0 26.101562 0 L 25.636719 -32.515625 C 22.660156 -34.167969 15.519531 -33.175781 15.519531 -33.175781 L 15.210938 -23.609375 L 15.101562 -20.125 L 10.625 -19.972656 C 10.625 -19.972656 10.25 -20.390625 10.25 -20.5 L 10.382812 -31.855469 C 8.023438 -32.296875 4.078125 -31.390625 4.078125 -31.390625 Z M 4.078125 -31.390625 "/></g></g></g><g fill="#0d82bb" fill-opacity="1"><g transform="translate(285.713057, 52.298224)"><g><path d="M 4.496094 -1.277344 L 28.128906 -0.417969 C 28.128906 -0.417969 29.230469 -32.273438 28.945312 -32.339844 C 25.417969 -33.15625 23.148438 -32.957031 23.148438 -32.957031 L 22.042969 -32.625 C 22.042969 -32.625 21.757812 -21.648438 21.847656 -11.617188 L 16.226562 -11.242188 C 16.226562 -12.542969 16.730469 -27.535156 16.644531 -31.148438 C 15.453125 -31.457031 7.386719 -31.699219 4.453125 -31.5 C 4.121094 -26.609375 4.234375 -3.746094 4.078125 -2.050781 Z M 4.496094 -1.277344 "/></g></g></g><g fill="#0d82bb" fill-opacity="1"><g transform="translate(317.165508, 52.298224)"><g><path d="M 27.136719 -16.6875 L 22.289062 -19.179688 C 22.792969 -19.6875 24.734375 -21.140625 25.242188 -21.648438 C 27.050781 -25.792969 24.976562 -32.691406 24.976562 -32.691406 L 22.351562 -33.089844 C 19.289062 -33.132812 10.558594 -34.433594 4.386719 -32.78125 L 4.078125 -32.429688 C 4.011719 -32.363281 4.386719 -10.25 4.429688 -1.277344 L 16.203125 -0.550781 L 25.152344 -0.773438 L 25.945312 -1.191406 C 29.339844 -9.921875 27.136719 -16.6875 27.136719 -16.6875 Z M 9.414062 -21.449219 C 8.949219 -23.167969 9.304688 -27.246094 9.304688 -27.246094 C 9.304688 -27.246094 13.910156 -27.554688 14.636719 -27.554688 C 16.203125 -25.878906 15.851562 -23.191406 14.636719 -21.140625 Z M 10.40625 -8.90625 C 9.808594 -11.109375 10.273438 -16.445312 10.273438 -16.445312 C 10.273438 -16.445312 16.269531 -16.84375 17.195312 -16.84375 C 19.246094 -14.636719 18.761719 -11.15625 17.195312 -8.507812 Z M 10.40625 -8.90625 "/></g></g></g><g fill="#0d82bb" fill-opacity="1"><g transform="translate(347.141207, 52.298224)"><g><path d="M 2.691406 -32.40625 C 2.160156 -21.800781 4.542969 0.925781 4.542969 0.925781 L 9.480469 0.484375 L 11.15625 -0.835938 L 14.726562 -33.242188 C 8.621094 -33.882812 2.691406 -32.40625 2.691406 -32.40625 Z M 11.285156 6.964844 C 11.285156 6.769531 11.285156 6.589844 11.175781 6.414062 C 10.625 5.160156 9.632812 4.914062 8.265625 4.914062 C 6.65625 4.914062 3.96875 5.621094 3.96875 7.496094 C 3.96875 9.191406 5.84375 10.230469 7.339844 10.230469 C 8.996094 10.230469 11.285156 8.621094 11.285156 6.964844 Z M 11.285156 6.964844 "/></g></g></g><path stroke-linecap="butt" transform="matrix(1.122795, 0, 0, 1.122795, 0.0000075, 13.144753)" fill="none" stroke-linejoin="miter" d="M 27.526162 10.892678 L 23.14605 4.960914 C 20.79074 3.684106 16.274945 4.254669 16.274945 4.254669 L 15.293856 4.550387 C 15.293856 4.550387 14.782437 24.850589 15.429538 33.29422 L 16.097514 34.195292 L 22.439805 34.609297 L 23.069511 34.410992 C 23.069511 34.410992 23.184319 30.21179 23.166924 29.797784 C 23.166924 29.366383 22.951224 22.19956 22.951224 22.19956 L 26.91733 27.679049 L 31.255693 24.440062 L 31.41225 34.588423 L 36.811721 34.216166 C 36.811721 34.216166 37.597984 6.237722 37.340535 6.178578 C 34.198962 5.451459 31.589681 5.62889 31.589681 5.62889 L 30.608592 5.924608 Z M 42.597366 25.125433 C 41.362306 27.070217 42.030282 33.746495 42.030282 33.746495 C 43.070515 34.038735 50.491309 34.685836 53.27802 33.725621 C 53.27802 33.725621 54.00514 29.26897 53.612008 26.774498 C 53.083194 26.736229 50.981853 26.638816 50.470434 26.579672 C 50.588722 22.457009 50.745279 16.546119 50.804422 13.091432 C 51.354111 13.032288 53.907726 12.931396 54.398271 12.914001 C 54.791403 10.419529 54.064283 4.195525 54.064283 4.195525 C 51.277572 3.23531 43.070515 3.882411 42.030282 4.174651 C 42.030282 4.174651 42.186839 13.64112 42.597366 13.975108 L 42.952228 14.249952 L 45.564987 14.326491 C 45.464095 17.899466 45.544113 25.146307 45.544113 25.146307 Z M 74.775012 21.493315 C 74.775012 21.493315 72.851102 16.76182 72.673671 16.368688 C 72.499719 15.975556 68.533613 7.966805 68.533613 7.966805 L 68.512739 7.945931 C 65.371165 7.218811 61.384185 7.396242 61.384185 7.396242 L 60.403095 7.691961 C 60.403095 7.691961 59.891676 24.850589 60.542257 33.29422 L 61.210232 34.195292 L 66.174823 34.410992 L 66.80453 34.216166 C 66.80453 34.216166 66.922817 30.21179 66.901943 29.797784 C 66.901943 29.387258 66.686242 23.573781 66.686242 23.573781 C 66.686242 23.573781 70.064391 29.582084 70.280091 29.936946 C 70.495792 30.288329 72.990264 34.393597 72.990264 34.393597 L 80.54674 34.609297 C 80.54674 34.609297 81.333003 4.863501 81.079033 4.804357 C 77.937459 4.077238 75.912658 4.254669 75.912658 4.254669 C 75.912658 4.254669 75.032461 4.292938 74.931568 4.550387 Z M 85.452187 25.125433 C 84.213649 27.070217 84.881624 33.746495 84.881624 33.746495 C 85.921857 34.038735 93.34613 34.685836 96.132841 33.725621 C 96.132841 33.725621 96.859961 29.26897 96.466829 26.774498 C 95.938015 26.736229 93.836675 26.638816 93.325256 26.579672 C 93.443543 22.457009 93.6001 16.546119 93.659244 13.091432 C 94.208932 13.032288 96.762548 12.931396 97.253092 12.914001 C 97.646224 10.419529 96.919105 4.195525 96.919105 4.195525 C 94.128914 3.23531 85.921857 3.882411 84.881624 4.174651 C 84.881624 4.174651 85.038181 13.64112 85.452187 13.975108 L 85.807049 14.249952 L 88.416329 14.326491 C 88.318916 17.899466 88.395455 25.146307 88.395455 25.146307 Z M 102.607336 3.586693 C 102.607336 3.586693 99.761481 25.205451 104.865233 34.922411 C 104.865233 34.922411 116.039911 34.000465 120.927963 33.412508 L 121.046251 27.992162 L 123.832962 27.776462 L 123.380687 22.592691 C 118.217791 22.123021 112.877463 23.180649 112.877463 23.180649 L 113.054895 25.636852 L 115.156235 25.772535 L 115.312792 29.011521 C 114.683086 29.032396 113.938571 29.05327 112.995751 29.05327 C 112.623494 29.05327 108.911357 28.952378 108.615639 28.503581 C 108.459082 28.169593 107.832855 21.590728 107.832855 21.590728 C 107.832855 21.590728 107.655424 20.355668 108.420813 19.273687 C 109.088788 18.330867 116.881839 18.64746 118.158647 18.410885 C 118.158647 18.470028 118.179521 18.470028 118.196916 18.410885 L 118.158647 18.410885 C 118.120378 18.076897 118.631797 15.09188 118.631797 15.09188 C 118.631797 13.324527 118.513509 6.415153 118.374348 4.588657 C 114.95793 4.195525 106.023754 3.155292 102.607336 3.586693 Z M 127.597284 4.981788 C 126.675338 14.229078 125.829931 22.554422 125.339387 32.60537 L 126.007362 33.353364 L 135.452957 33.823034 L 135.745197 27.776462 L 139.300776 28.013037 C 140.045291 33.175933 139.888734 32.271382 140.243596 33.54819 C 141.871787 33.607334 144.442798 33.509921 145.858768 33.509921 C 144.915948 23.653799 143.503457 14.757892 142.362332 4.943519 C 140.459297 4.766088 132.488815 3.784998 127.597284 4.981788 Z M 134.628425 22.749248 L 134.531012 16.998394 C 134.531012 16.998394 134.39185 16.389562 139.085076 16.72355 L 139.478207 23.024093 Z M 162.954773 10.892678 L 158.57814 4.960914 C 156.21935 3.684106 151.703556 4.254669 151.703556 4.254669 L 150.722466 4.550387 C 150.722466 4.550387 150.214526 24.850589 150.861628 33.29422 L 151.529604 34.195292 L 157.868416 34.609297 L 158.498122 34.410992 C 158.498122 34.410992 158.616409 30.21179 158.595535 29.797784 C 158.595535 29.366383 158.379835 22.19956 158.379835 22.19956 L 162.345941 27.679049 L 166.684304 24.440062 L 166.84434 34.588423 L 172.240332 34.216166 C 172.240332 34.216166 173.026595 6.237722 172.772625 6.178578 C 169.631052 5.451459 167.018292 5.62889 167.018292 5.62889 L 166.037203 5.924608 Z M 197.898256 12.127738 C 198.90022 9.045308 197.995669 4.609531 197.995669 4.609531 L 196.76061 4.529513 L 179.915096 4.960914 C 179.915096 4.960914 179.187976 6.53344 179.107958 7.789374 C 179.031419 9.045308 178.913132 28.994126 179.796808 31.349437 C 180.228209 32.507957 180.621341 33.704747 181.052742 33.80216 C 181.484143 33.903052 186.473087 34.296184 192.871042 34.23704 C 199.272477 34.177896 197.859987 34.334453 197.859987 34.334453 L 197.661681 28.757551 C 197.661681 28.757551 196.739736 28.148719 196.778005 28.186989 C 196.819753 28.228737 197.327693 28.267007 197.327693 28.267007 L 187.746416 28.186989 L 187.255871 27.658174 L 187.395033 22.690105 C 193.796467 22.630961 197.073723 22.397865 197.073723 22.397865 L 197.073723 19.962537 C 197.073723 19.962537 196.739736 17.979484 196.778005 18.017753 C 196.819753 18.056023 194.384425 18.097771 194.384425 18.097771 L 189.298068 18.115166 C 188.435266 15.683317 188.671841 12.6983 188.671841 12.6983 C 196.604053 12.305169 197.898256 12.127738 197.898256 12.127738 Z M 225.340928 33.509921 C 225.754934 33.33249 226.186335 23.556386 226.186335 23.556386 L 225.873221 23.222398 L 209.260802 22.338722 L 209.535647 19.590279 C 209.535647 19.590279 222.86733 19.687693 223.319605 19.590279 C 223.751006 19.510262 223.239587 4.724339 222.86733 4.6478 C 221.865366 4.449495 205.649558 5.510602 205.294696 5.785447 C 205.256427 5.806321 204.745008 6.512566 204.745008 6.512566 C 203.823062 7.73023 203.569092 24.0852 203.784793 24.0852 C 203.784793 24.0852 206.668917 24.948002 214.190603 25.320259 C 214.034046 26.537923 213.759202 28.207863 213.759202 28.207863 C 213.306927 28.207863 205.040726 27.070217 205.040726 27.070217 C 204.981583 27.108486 204.588451 27.797336 204.588451 27.797336 C 204.588451 27.797336 204.609325 32.507957 204.922439 33.116789 Z M 231.091782 6.042896 C 231.091782 6.042896 231.443165 32.918484 231.502309 32.960232 C 231.523183 32.977627 232.406859 33.33249 232.466003 33.353364 C 232.525146 33.370759 238.039426 33.607334 238.039426 33.607334 C 237.980282 33.607334 238.474306 22.787518 238.474306 22.787518 C 238.474306 22.787518 242.203837 22.690105 242.203837 22.749248 C 242.203837 22.808392 242.596969 33.095915 242.596969 33.412508 C 242.596969 33.725621 250.703133 34.000465 250.703133 34.000465 L 250.292607 5.040932 C 247.641578 3.569298 241.281892 4.449495 241.281892 4.449495 L 241.007047 12.973144 L 240.906155 16.07297 L 236.922654 16.212131 C 236.922654 16.212131 236.588666 15.839874 236.588666 15.738982 L 236.706953 5.62889 C 234.605613 5.235758 231.091782 6.042896 231.091782 6.042896 Z M 257.177628 32.862819 L 278.225823 33.628208 C 278.225823 33.628208 279.206912 5.256632 278.952942 5.197489 C 275.811369 4.470369 273.790046 4.6478 273.790046 4.6478 L 272.808957 4.943519 C 272.808957 4.943519 272.551508 14.719623 272.631526 23.653799 L 267.625186 23.987787 C 267.625186 22.829266 268.077462 9.476709 267.997444 6.258596 C 266.936336 5.983752 259.752118 5.768051 257.139358 5.942003 C 256.847119 10.301241 256.944532 30.660586 256.80537 32.173969 Z M 305.355381 19.138004 L 301.037892 16.918376 C 301.486688 16.466101 303.215771 15.171898 303.668046 14.719623 C 305.278842 11.028361 303.431472 4.884375 303.431472 4.884375 L 301.093556 4.529513 C 298.365989 4.491244 290.590333 3.332723 285.093449 4.804357 L 284.818605 5.117471 C 284.759461 5.176615 285.093449 24.871463 285.131718 32.862819 L 295.617547 33.509921 L 303.588028 33.311615 L 304.294274 32.939358 C 307.31756 25.163702 305.355381 19.138004 305.355381 19.138004 Z M 289.570974 14.897054 C 289.156968 13.366276 289.473561 9.734158 289.473561 9.734158 C 289.473561 9.734158 293.57535 9.459313 294.222451 9.459313 C 295.617547 10.948343 295.304433 13.345402 294.222451 15.171898 Z M 290.45465 26.068253 C 289.922357 24.106074 290.336363 19.353705 290.336363 19.353705 C 290.336363 19.353705 295.67669 18.998843 296.501223 18.998843 C 298.327719 20.964501 297.896318 24.064326 296.501223 26.419636 Z M 310.278223 5.138345 C 309.808553 14.580461 311.927289 34.824998 311.927289 34.824998 L 316.324796 34.431866 L 317.817304 33.252472 L 321.000626 4.39383 C 315.559407 3.823268 310.278223 5.138345 310.278223 5.138345 Z M 317.935592 40.203595 C 317.935592 40.026164 317.935592 39.869607 317.838178 39.71305 C 317.347634 38.592799 316.463957 38.377098 315.246293 38.377098 C 313.812929 38.377098 311.419349 39.006805 311.419349 40.676744 C 311.419349 42.186648 313.085809 43.108594 314.421761 43.108594 C 315.893395 43.108594 317.935592 41.675229 317.935592 40.203595 Z M 317.935592 40.203595 " stroke="#fad000" stroke-width="0.804318" stroke-opacity="1" stroke-miterlimit="4"/></svg>