<svg xmlns="http://www.w3.org/2000/svg" xmlns:xlink="http://www.w3.org/1999/xlink" width="800" zoomAndPan="magnify" viewBox="0 0 600 74.999997" height="100" preserveAspectRatio="xMidYMid meet" version="1.0"><defs><g/></defs><g fill="#fad000" fill-opacity="1"><g transform="translate(49.882882, 57.200378)"><g><path d="M 26.898438 -38.941406 L 19.519531 -48.929688 C 15.550781 -51.082031 7.941406 -50.121094 7.941406 -50.121094 L 6.285156 -49.625 C 6.285156 -49.625 5.425781 -15.417969 6.515625 -1.191406 L 7.640625 0.332031 L 18.328125 1.027344 L 19.386719 0.695312 C 19.386719 0.695312 19.585938 -6.386719 19.550781 -7.078125 C 19.550781 -7.808594 19.1875 -19.882812 19.1875 -19.882812 L 25.871094 -10.652344 L 33.183594 -16.113281 L 33.449219 0.992188 L 42.546875 0.363281 C 42.546875 0.363281 43.871094 -46.78125 43.4375 -46.878906 C 38.144531 -48.105469 33.746094 -47.804688 33.746094 -47.804688 L 32.089844 -47.308594 Z M 26.898438 -38.941406 "/></g></g></g><g fill="#fad000" fill-opacity="1"><g transform="translate(97.679354, 57.200378)"><g><path d="M 4.5 -14.953125 C 2.414062 -11.679688 3.539062 -0.429688 3.539062 -0.429688 C 5.292969 0.0664062 17.800781 1.15625 22.496094 -0.464844 C 22.496094 -0.464844 23.722656 -7.972656 23.058594 -12.175781 C 22.167969 -12.242188 18.625 -12.40625 17.765625 -12.503906 C 17.964844 -19.453125 18.230469 -29.410156 18.328125 -35.234375 C 19.253906 -35.332031 23.554688 -35.5 24.382812 -35.53125 C 25.042969 -39.734375 23.820312 -50.222656 23.820312 -50.222656 C 19.121094 -51.84375 5.292969 -50.75 3.539062 -50.253906 C 3.539062 -50.253906 3.804688 -34.308594 4.5 -33.746094 L 5.09375 -33.28125 L 9.496094 -33.148438 C 9.328125 -27.128906 9.460938 -14.921875 9.460938 -14.921875 Z M 4.5 -14.953125 "/></g></g></g><g fill="#fad000" fill-opacity="1"><g transform="translate(126.5557, 57.200378)"><g><path d="M 29.839844 -21.074219 C 29.839844 -21.074219 26.597656 -29.046875 26.300781 -29.710938 C 26.003906 -30.371094 19.320312 -43.871094 19.320312 -43.871094 L 19.289062 -43.902344 C 13.996094 -45.125 7.277344 -44.828125 7.277344 -44.828125 L 5.625 -44.332031 C 5.625 -44.332031 4.765625 -15.417969 5.855469 -1.191406 L 6.980469 0.332031 L 15.351562 0.695312 L 16.410156 0.363281 C 16.410156 0.363281 16.609375 -6.386719 16.574219 -7.078125 C 16.574219 -7.773438 16.210938 -17.566406 16.210938 -17.566406 C 16.210938 -17.566406 21.902344 -7.445312 22.265625 -6.847656 C 22.628906 -6.253906 26.832031 0.660156 26.832031 0.660156 L 39.570312 1.027344 C 39.570312 1.027344 40.890625 -49.097656 40.460938 -49.195312 C 35.167969 -50.421875 31.761719 -50.121094 31.761719 -50.121094 C 31.761719 -50.121094 30.273438 -50.054688 30.105469 -49.625 Z M 29.839844 -21.074219 "/></g></g></g><g fill="#fad000" fill-opacity="1"><g transform="translate(169.886758, 57.200378)"><g><path d="M 4.5 -14.953125 C 2.414062 -11.679688 3.539062 -0.429688 3.539062 -0.429688 C 5.292969 0.0664062 17.800781 1.15625 22.496094 -0.464844 C 22.496094 -0.464844 23.722656 -7.972656 23.058594 -12.175781 C 22.167969 -12.242188 18.625 -12.40625 17.765625 -12.503906 C 17.964844 -19.453125 18.230469 -29.410156 18.328125 -35.234375 C 19.253906 -35.332031 23.554688 -35.5 24.382812 -35.53125 C 25.042969 -39.734375 23.820312 -50.222656 23.820312 -50.222656 C 19.121094 -51.84375 5.292969 -50.75 3.539062 -50.253906 C 3.539062 -50.253906 3.804688 -34.308594 4.5 -33.746094 L 5.09375 -33.28125 L 9.496094 -33.148438 C 9.328125 -27.128906 9.460938 -14.921875 9.460938 -14.921875 Z M 4.5 -14.953125 "/></g></g></g><g fill="#fad000" fill-opacity="1"><g transform="translate(198.763104, 57.200378)"><g><path d="M 4.53125 -51.246094 C 4.53125 -51.246094 -0.265625 -14.820312 8.335938 1.554688 C 8.335938 1.554688 27.160156 0 35.398438 -0.992188 L 35.597656 -10.125 L 40.296875 -10.488281 L 39.535156 -19.222656 C 30.835938 -20.015625 21.835938 -18.230469 21.835938 -18.230469 L 22.132812 -14.09375 L 25.671875 -13.863281 L 25.9375 -8.402344 C 24.878906 -8.371094 23.621094 -8.335938 22.035156 -8.335938 C 21.40625 -8.335938 15.152344 -8.503906 14.65625 -9.261719 C 14.390625 -9.824219 13.332031 -20.910156 13.332031 -20.910156 C 13.332031 -20.910156 13.035156 -22.992188 14.324219 -24.8125 C 15.449219 -26.402344 28.585938 -25.871094 30.734375 -26.269531 C 30.734375 -26.167969 30.769531 -26.167969 30.800781 -26.269531 L 30.734375 -26.269531 C 30.667969 -26.832031 31.527344 -31.859375 31.527344 -31.859375 C 31.527344 -34.835938 31.332031 -46.484375 31.097656 -49.558594 C 25.34375 -50.222656 10.289062 -51.976562 4.53125 -51.246094 Z M 4.53125 -51.246094 "/></g></g></g><g fill="#fad000" fill-opacity="1"><g transform="translate(239.811839, 57.200378)"><g><path d="M 5.589844 -48.898438 C 4.035156 -33.316406 2.613281 -19.289062 1.785156 -2.347656 L 2.910156 -1.089844 L 18.824219 -0.296875 L 19.320312 -10.488281 L 25.308594 -10.089844 C 26.566406 -1.390625 26.300781 -2.910156 26.898438 -0.761719 C 29.644531 -0.660156 33.976562 -0.828125 36.359375 -0.828125 C 34.769531 -17.433594 32.390625 -32.421875 30.46875 -48.964844 C 27.261719 -49.261719 13.828125 -50.917969 5.589844 -48.898438 Z M 17.433594 -18.957031 L 17.269531 -28.652344 C 17.269531 -28.652344 17.039062 -29.675781 24.945312 -29.113281 L 25.605469 -18.492188 Z M 17.433594 -18.957031 "/></g></g></g><g fill="#fad000" fill-opacity="1"><g transform="translate(278.082095, 57.200378)"><g><path d="M 26.898438 -38.941406 L 19.519531 -48.929688 C 15.550781 -51.082031 7.941406 -50.121094 7.941406 -50.121094 L 6.285156 -49.625 C 6.285156 -49.625 5.425781 -15.417969 6.515625 -1.191406 L 7.640625 0.332031 L 18.328125 1.027344 L 19.386719 0.695312 C 19.386719 0.695312 19.585938 -6.386719 19.550781 -7.078125 C 19.550781 -7.808594 19.1875 -19.882812 19.1875 -19.882812 L 25.871094 -10.652344 L 33.183594 -16.113281 L 33.449219 0.992188 L 42.546875 0.363281 C 42.546875 0.363281 43.871094 -46.78125 43.4375 -46.878906 C 38.144531 -48.105469 33.746094 -47.804688 33.746094 -47.804688 L 32.089844 -47.308594 Z M 26.898438 -38.941406 "/></g></g></g><g fill="#fad000" fill-opacity="1"><g transform="translate(325.878567, 57.200378)"><g><path d="M 37.980469 -36.855469 C 39.667969 -42.050781 38.144531 -49.527344 38.144531 -49.527344 L 36.0625 -49.660156 L 7.675781 -48.929688 C 7.675781 -48.929688 6.453125 -46.285156 6.320312 -44.167969 C 6.1875 -42.050781 5.988281 -8.4375 7.476562 -4.464844 C 8.203125 -2.515625 8.867188 -0.496094 9.59375 -0.332031 C 10.320312 -0.164062 18.726562 0.496094 29.511719 0.398438 C 40.296875 0.296875 37.914062 0.5625 37.914062 0.5625 L 37.582031 -8.832031 C 37.582031 -8.832031 36.027344 -9.859375 36.09375 -9.792969 C 36.160156 -9.726562 37.019531 -9.660156 37.019531 -9.660156 L 20.875 -9.792969 L 20.050781 -10.6875 L 20.28125 -19.054688 C 31.066406 -19.15625 36.589844 -19.550781 36.589844 -19.550781 L 36.589844 -23.65625 C 36.589844 -23.65625 36.027344 -26.996094 36.09375 -26.929688 C 36.160156 -26.863281 32.058594 -26.796875 32.058594 -26.796875 L 23.488281 -26.765625 C 22.035156 -30.867188 22.429688 -35.894531 22.429688 -35.894531 C 35.796875 -36.558594 37.980469 -36.855469 37.980469 -36.855469 Z M 37.980469 -36.855469 "/></g></g></g><g fill="#fad000" fill-opacity="1"><g transform="translate(369.9704, 57.200378)"><g><path d="M 40.132812 -0.828125 C 40.824219 -1.125 41.554688 -17.601562 41.554688 -17.601562 L 41.023438 -18.164062 L 13.035156 -19.652344 L 13.5 -24.285156 C 13.5 -24.285156 35.960938 -24.117188 36.722656 -24.285156 C 37.449219 -24.414062 36.589844 -49.328125 35.960938 -49.460938 C 34.273438 -49.792969 6.949219 -48.003906 6.351562 -47.542969 C 6.285156 -47.507812 5.425781 -46.316406 5.425781 -46.316406 C 3.871094 -44.265625 3.441406 -16.707031 3.804688 -16.707031 C 3.804688 -16.707031 8.667969 -15.25 21.339844 -14.625 C 21.074219 -12.570312 20.613281 -9.761719 20.613281 -9.761719 C 19.851562 -9.761719 5.921875 -11.679688 5.921875 -11.679688 C 5.824219 -11.613281 5.160156 -10.453125 5.160156 -10.453125 C 5.160156 -10.453125 5.195312 -2.515625 5.722656 -1.488281 Z M 40.132812 -0.828125 "/></g></g></g><g fill="#fad000" fill-opacity="1"><g transform="translate(413.665306, 57.200378)"><g><path d="M 6.121094 -47.113281 C 6.121094 -47.113281 6.714844 -1.820312 6.816406 -1.753906 C 6.847656 -1.71875 8.335938 -1.125 8.4375 -1.089844 C 8.535156 -1.058594 17.832031 -0.660156 17.832031 -0.660156 C 17.734375 -0.660156 18.558594 -18.890625 18.558594 -18.890625 C 18.558594 -18.890625 24.847656 -19.054688 24.847656 -18.957031 C 24.847656 -18.859375 25.507812 -1.523438 25.507812 -0.992188 C 25.507812 -0.464844 39.171875 0 39.171875 0 L 38.476562 -48.800781 C 34.011719 -51.28125 23.292969 -49.792969 23.292969 -49.792969 L 22.828125 -35.433594 L 22.664062 -30.207031 L 15.945312 -29.972656 C 15.945312 -29.972656 15.382812 -30.601562 15.382812 -30.769531 L 15.582031 -47.804688 C 12.042969 -48.46875 6.121094 -47.113281 6.121094 -47.113281 Z M 6.121094 -47.113281 "/></g></g></g><g fill="#fad000" fill-opacity="1"><g transform="translate(456.996364, 57.200378)"><g><path d="M 6.75 -1.917969 L 42.214844 -0.628906 C 42.214844 -0.628906 43.871094 -48.433594 43.4375 -48.535156 C 38.144531 -49.757812 34.738281 -49.460938 34.738281 -49.460938 L 33.085938 -48.964844 C 33.085938 -48.964844 32.652344 -32.488281 32.785156 -17.433594 L 24.351562 -16.871094 C 24.351562 -18.824219 25.109375 -41.320312 24.976562 -46.746094 C 23.191406 -47.210938 11.082031 -47.574219 6.683594 -47.277344 C 6.1875 -39.933594 6.351562 -5.625 6.121094 -3.078125 Z M 6.75 -1.917969 "/></g></g></g><g fill="#fad000" fill-opacity="1"><g transform="translate(504.197448, 57.200378)"><g><path d="M 40.726562 -25.042969 L 33.449219 -28.78125 C 34.207031 -29.542969 37.121094 -31.726562 37.882812 -32.488281 C 40.59375 -38.707031 37.484375 -49.0625 37.484375 -49.0625 L 33.546875 -49.660156 C 28.949219 -49.726562 15.847656 -51.675781 6.582031 -49.195312 L 6.121094 -48.667969 C 6.019531 -48.566406 6.582031 -15.382812 6.648438 -1.917969 L 24.316406 -0.828125 L 37.75 -1.15625 L 38.941406 -1.785156 C 44.035156 -14.886719 40.726562 -25.042969 40.726562 -25.042969 Z M 14.125 -32.191406 C 13.433594 -34.769531 13.960938 -40.890625 13.960938 -40.890625 C 13.960938 -40.890625 20.875 -41.355469 21.96875 -41.355469 C 24.316406 -38.839844 23.789062 -34.804688 21.96875 -31.726562 Z M 15.617188 -13.367188 C 14.722656 -16.675781 15.417969 -24.679688 15.417969 -24.679688 C 15.417969 -24.679688 24.414062 -25.277344 25.804688 -25.277344 C 28.882812 -21.96875 28.15625 -16.742188 25.804688 -12.769531 Z M 15.617188 -13.367188 "/></g></g></g><g fill="#fad000" fill-opacity="1"><g transform="translate(549.182363, 57.200378)"><g><path d="M 4.035156 -48.632812 C 3.242188 -32.71875 6.816406 1.390625 6.816406 1.390625 L 14.226562 0.726562 L 16.742188 -1.257812 L 22.101562 -49.890625 C 12.9375 -50.851562 4.035156 -48.632812 4.035156 -48.632812 Z M 16.9375 10.453125 C 16.9375 10.15625 16.9375 9.890625 16.773438 9.628906 C 15.945312 7.742188 14.457031 7.378906 12.40625 7.378906 C 9.992188 7.378906 5.957031 8.4375 5.957031 11.25 C 5.957031 13.796875 8.765625 15.351562 11.015625 15.351562 C 13.5 15.351562 16.9375 12.9375 16.9375 10.453125 Z M 16.9375 10.453125 "/></g></g></g><path stroke-linecap="butt" transform="matrix(1.125516, 0, 0, 1.125516, 23.050996, -2.714536)" fill="none" stroke-linejoin="miter" d="M 44.163583 16.401926 L 37.607562 7.524053 C 34.081401 5.615207 27.320613 6.468982 27.320613 6.468982 L 25.849065 6.909752 C 25.849065 6.909752 25.085527 37.302064 26.057303 49.9421 L 27.056845 51.295646 L 36.549019 51.909948 L 37.48956 51.618415 C 37.48956 51.618415 37.666562 45.326162 37.638797 44.708389 C 37.638797 44.062852 37.316029 33.335133 37.316029 33.335133 L 43.250807 41.536233 L 49.747827 36.684291 L 49.98383 51.882183 L 58.066929 51.323411 C 58.066929 51.323411 59.243473 9.436371 58.861703 9.349605 C 54.158999 8.259827 50.247598 8.523595 50.247598 8.523595 L 48.779522 8.964365 Z M 66.729623 37.715069 C 64.876306 40.623457 65.875848 50.618873 65.875848 50.618873 C 67.434161 51.059643 78.54712 52.027949 82.718818 50.587637 C 82.718818 50.587637 83.808596 43.917086 83.218589 40.182687 C 82.427285 40.123686 79.279423 39.97792 78.515884 39.887683 C 78.692886 33.716902 78.928889 24.866794 79.015655 19.695555 C 79.838194 19.605318 83.659359 19.459552 84.395132 19.431787 C 84.98514 15.697388 83.895362 6.378745 83.895362 6.378745 C 79.723664 4.938434 67.434161 5.91021 65.875848 6.35098 C 65.875848 6.35098 66.111851 20.518094 66.729623 21.017865 L 67.257159 21.427399 L 71.168559 21.545401 C 71.022793 26.897113 71.137324 37.742834 71.137324 37.742834 Z M 114.901975 32.276591 C 114.901975 32.276591 112.021352 25.193034 111.757584 24.603026 C 111.493816 24.01649 105.555567 12.021991 105.555567 12.021991 L 105.524331 11.994226 C 100.821627 10.904448 94.855613 11.171686 94.855613 11.171686 L 93.384066 11.612456 C 93.384066 11.612456 92.620527 37.302064 93.592303 49.9421 L 94.591845 51.295646 L 102.025936 51.618415 L 102.966477 51.323411 C 102.966477 51.323411 103.143479 45.326162 103.115714 44.708389 C 103.115714 44.090617 102.792945 35.393217 102.792945 35.393217 C 102.792945 35.393217 107.846183 44.385621 108.168952 44.916627 C 108.495191 45.444163 112.226119 51.587179 112.226119 51.587179 L 123.543845 51.909948 C 123.543845 51.909948 124.720389 7.378287 124.33862 7.291521 C 119.635915 6.201743 116.606055 6.468982 116.606055 6.468982 C 116.606055 6.468982 115.283744 6.524512 115.137978 6.909752 Z M 130.884229 37.715069 C 129.030912 40.623457 130.030454 50.618873 130.030454 50.618873 C 131.588767 51.059643 142.701726 52.027949 146.873424 50.587637 C 146.873424 50.587637 147.963202 43.917086 147.373195 40.182687 C 146.581891 40.123686 143.4375 39.97792 142.67049 39.887683 C 142.847492 33.716902 143.083495 24.866794 143.170261 19.695555 C 143.992801 19.605318 147.817435 19.459552 148.549739 19.431787 C 149.139746 15.697388 148.049968 6.378745 148.049968 6.378745 C 143.87827 4.938434 131.588767 5.91021 130.030454 6.35098 C 130.030454 6.35098 130.266457 20.518094 130.884229 21.017865 L 131.415235 21.427399 L 135.323165 21.545401 C 135.177399 26.897113 135.2954 37.742834 135.2954 37.742834 Z M 156.570366 5.46944 C 156.570366 5.46944 152.308431 37.829599 159.95076 52.381953 C 159.95076 52.381953 176.675729 51.000643 183.995289 50.119102 L 184.172291 42.004768 L 188.343989 41.681999 L 187.670686 33.921669 C 179.938121 33.217131 171.941789 34.80321 171.941789 34.80321 L 172.209027 38.478607 L 175.353418 38.683375 L 175.589421 43.535316 C 174.64888 43.563081 173.531337 43.590846 172.118791 43.590846 C 171.560019 43.590846 166.00701 43.44508 165.56624 42.768307 C 165.330237 42.268536 164.389696 32.422357 164.389696 32.422357 C 164.389696 32.422357 164.125928 30.572511 165.271237 28.955197 C 166.270778 27.54265 177.939038 28.014656 179.851356 27.660652 C 179.851356 27.747418 179.879121 27.747418 179.910356 27.660652 L 179.851356 27.660652 C 179.792355 27.160881 180.555894 22.69418 180.555894 22.69418 C 180.555894 20.046088 180.378891 9.700139 180.174124 6.965282 C 175.058415 6.378745 161.686075 4.820432 156.570366 5.46944 Z M 193.980293 7.555289 C 192.598982 21.399634 191.335672 33.862669 190.599898 48.911323 L 191.59944 50.028866 L 205.738789 50.736875 L 206.179559 41.681999 L 211.500036 42.036004 C 212.617579 49.765098 212.381576 48.411552 212.912582 50.32387 C 215.352436 50.410635 219.201365 50.264869 221.31845 50.264869 C 219.905903 35.507748 217.792289 22.194409 216.084739 7.496288 C 213.235351 7.23252 201.299853 5.760973 193.980293 7.555289 Z M 204.503245 34.157672 L 204.357478 25.543567 C 204.357478 25.543567 204.152711 24.634262 211.177267 25.134033 L 211.763804 34.567207 Z M 246.91435 16.401926 L 240.358329 7.524053 C 236.832168 5.615207 230.07138 6.468982 230.07138 6.468982 L 228.599833 6.909752 C 228.599833 6.909752 227.836294 37.302064 228.80807 49.9421 L 229.807612 51.295646 L 239.299787 51.909948 L 240.240328 51.618415 C 240.240328 51.618415 240.41733 45.326162 240.389565 44.708389 C 240.389565 44.062852 240.066796 33.335133 240.066796 33.335133 L 246.001574 41.536233 L 252.498595 36.684291 L 252.734598 51.882183 L 260.817696 51.323411 C 260.817696 51.323411 261.99424 9.436371 261.612471 9.349605 C 256.909766 8.259827 252.998365 8.523595 252.998365 8.523595 L 251.530289 8.964365 Z M 299.227165 18.255243 C 300.726477 13.639304 299.372931 6.996518 299.372931 6.996518 L 297.523085 6.878516 L 272.302013 7.524053 C 272.302013 7.524053 271.215705 9.877141 271.097704 11.758223 C 270.979702 13.639304 270.8027 43.50408 272.125011 47.030241 C 272.774018 48.765556 273.360555 50.559872 274.006092 50.705639 C 274.6551 50.851405 282.120427 51.441413 291.702838 51.351176 C 301.285249 51.26441 299.168164 51.500413 299.168164 51.500413 L 298.87316 43.150076 C 298.87316 43.150076 297.491849 42.240771 297.55085 42.299772 C 297.609851 42.358772 298.37686 42.417773 298.37686 42.417773 L 284.029273 42.299772 L 283.29697 41.504997 L 283.501738 34.067436 C 293.084149 33.98067 297.99162 33.626666 297.99162 33.626666 L 297.99162 29.982504 C 297.99162 29.982504 297.491849 27.015115 297.55085 27.074115 C 297.609851 27.133116 293.965689 27.192117 293.965689 27.192117 L 286.351125 27.219882 C 285.060051 23.57572 285.410584 19.105548 285.410584 19.105548 C 297.287082 18.519011 299.227165 18.255243 299.227165 18.255243 Z M 340.312489 50.264869 C 340.930262 50.001101 341.575799 35.361981 341.575799 35.361981 L 341.107264 34.86221 L 316.240196 33.5399 L 316.64973 29.423732 C 316.64973 29.423732 336.609327 29.572969 337.286099 29.423732 C 337.931637 29.305731 337.168098 7.17352 336.609327 7.055518 C 335.110014 6.760515 310.829483 8.350063 310.301947 8.759598 C 310.242946 8.790834 309.479407 9.849376 309.479407 9.849376 C 308.098096 11.671457 307.712856 36.156756 308.039096 36.156756 C 308.039096 36.156756 312.360031 37.44783 323.615286 38.006602 C 323.382753 39.828683 322.969748 42.327537 322.969748 42.327537 C 322.292975 42.327537 309.920177 40.623457 309.920177 40.623457 C 309.829941 40.682458 309.243404 41.709764 309.243404 41.709764 C 309.243404 41.709764 309.27117 48.765556 309.743175 49.678332 Z M 348.916183 9.141367 C 348.916183 9.141367 349.447189 49.383329 349.533955 49.442329 C 349.56519 49.470094 350.887501 50.001101 350.974266 50.028866 C 351.064503 50.060102 359.324604 50.410635 359.324604 50.410635 C 359.234367 50.410635 359.970141 34.216673 359.970141 34.216673 C 359.970141 34.216673 365.554385 34.067436 365.554385 34.157672 C 365.554385 34.244438 366.144393 49.647097 366.144393 50.119102 C 366.144393 50.587637 378.281188 51.000643 378.281188 51.000643 L 377.666886 7.642055 C 373.696485 5.438204 364.173075 6.760515 364.173075 6.760515 L 363.760069 19.518553 L 363.614303 24.162256 L 357.648289 24.367024 C 357.648289 24.367024 357.148518 23.811723 357.148518 23.662486 L 357.32552 8.523595 C 354.177658 7.937058 348.916183 9.141367 348.916183 9.141367 Z M 387.974659 49.296563 L 419.484514 50.441871 C 419.484514 50.441871 420.956061 7.964823 420.574292 7.878058 C 415.871587 6.79175 412.841727 7.055518 412.841727 7.055518 L 411.37365 7.496288 C 411.37365 7.496288 410.991881 22.135408 411.109882 35.507748 L 403.61332 36.007518 C 403.61332 34.275674 404.290093 14.284842 404.172092 9.464136 C 402.582543 9.054601 391.827059 8.731833 387.915658 8.995601 C 387.474888 15.520386 387.620655 46.002934 387.415887 48.265786 Z M 460.101303 28.746959 L 453.632048 25.425566 C 454.308821 24.752264 456.897911 22.812181 457.571214 22.135408 C 459.983302 16.606694 457.22068 7.409523 457.22068 7.409523 L 453.722284 6.878516 C 449.637352 6.819515 437.996857 5.0842 429.764522 7.291521 L 429.354987 7.760056 C 429.264751 7.850293 429.764522 37.329829 429.823522 49.296563 L 445.521184 50.264869 L 457.453212 49.969865 L 458.511755 49.411094 C 463.040928 37.774069 460.101303 28.746959 460.101303 28.746959 Z M 436.466309 22.399176 C 435.848537 20.105089 436.320543 14.670082 436.320543 14.670082 C 436.320543 14.670082 442.463559 14.257077 443.435335 14.257077 C 445.521184 16.492163 445.049179 20.077324 443.435335 22.812181 Z M 437.78862 39.124145 C 436.997316 36.184521 437.615088 29.073199 437.615088 29.073199 C 437.615088 29.073199 445.60795 28.542192 446.843495 28.542192 C 449.578352 31.481816 448.929344 36.12552 446.843495 39.655151 Z M 467.469452 7.791292 C 466.764914 21.92717 469.940541 52.236187 469.940541 52.236187 L 476.524327 51.64618 L 478.755943 49.883099 L 483.521119 6.673749 C 475.375549 5.819974 467.469452 7.791292 467.469452 7.791292 Z M 478.932945 60.28805 C 478.932945 60.024282 478.932945 59.788279 478.787178 59.552276 C 478.051405 57.879432 476.729094 57.556664 474.907013 57.556664 C 472.762164 57.556664 469.173532 58.497205 469.173532 60.992588 C 469.173532 63.25891 471.672386 64.640221 473.671469 64.640221 C 475.875319 64.640221 478.932945 62.4919 478.932945 60.28805 Z M 478.932945 60.28805 " stroke="#0d82bb" stroke-width="2.332967" stroke-opacity="1" stroke-miterlimit="4"/></svg>