<svg xmlns="http://www.w3.org/2000/svg" xmlns:xlink="http://www.w3.org/1999/xlink" width="500" zoomAndPan="magnify" viewBox="0 0 375 74.999997" height="100" preserveAspectRatio="xMidYMid meet" version="1.0"><defs><g/></defs><g fill="#fad000" fill-opacity="1"><g transform="translate(13.601025, 51.243848)"><g><path d="M 17.921875 -25.949219 L 13.007812 -32.605469 C 10.363281 -34.039062 5.289062 -33.398438 5.289062 -33.398438 L 4.1875 -33.070312 C 4.1875 -33.070312 3.617188 -10.273438 4.34375 -0.792969 L 5.09375 0.21875 L 12.214844 0.683594 L 12.917969 0.464844 C 12.917969 0.464844 13.050781 -4.253906 13.027344 -4.71875 C 13.027344 -5.203125 12.785156 -13.25 12.785156 -13.25 L 17.238281 -7.097656 L 22.113281 -10.738281 L 22.289062 0.660156 L 28.351562 0.242188 C 28.351562 0.242188 29.234375 -31.171875 28.945312 -31.238281 C 25.417969 -32.054688 22.488281 -31.855469 22.488281 -31.855469 L 21.382812 -31.527344 Z M 17.921875 -25.949219 "/></g></g></g><g fill="#fad000" fill-opacity="1"><g transform="translate(45.450731, 51.243848)"><g><path d="M 3 -9.964844 C 1.609375 -7.78125 2.359375 -0.285156 2.359375 -0.285156 C 3.527344 0.0429688 11.859375 0.773438 14.992188 -0.308594 C 14.992188 -0.308594 15.808594 -5.3125 15.367188 -8.113281 C 14.769531 -8.15625 12.410156 -8.265625 11.839844 -8.332031 C 11.972656 -12.964844 12.148438 -19.597656 12.214844 -23.480469 C 12.832031 -23.546875 15.695312 -23.65625 16.246094 -23.675781 C 16.6875 -26.476562 15.871094 -33.464844 15.871094 -33.464844 C 12.742188 -34.546875 3.527344 -33.820312 2.359375 -33.488281 C 2.359375 -33.488281 2.535156 -22.863281 3 -22.488281 L 3.394531 -22.179688 L 6.328125 -22.089844 C 6.21875 -18.078125 6.304688 -9.941406 6.304688 -9.941406 Z M 3 -9.964844 "/></g></g></g><g fill="#fad000" fill-opacity="1"><g transform="translate(64.692802, 51.243848)"><g><path d="M 19.886719 -14.042969 C 19.886719 -14.042969 17.726562 -19.355469 17.527344 -19.796875 C 17.328125 -20.238281 12.875 -29.234375 12.875 -29.234375 L 12.851562 -29.253906 C 9.324219 -30.070312 4.851562 -29.871094 4.851562 -29.871094 L 3.746094 -29.542969 C 3.746094 -29.542969 3.175781 -10.273438 3.902344 -0.792969 L 4.652344 0.21875 L 10.230469 0.464844 L 10.933594 0.242188 C 10.933594 0.242188 11.066406 -4.253906 11.046875 -4.71875 C 11.046875 -5.179688 10.800781 -11.707031 10.800781 -11.707031 C 10.800781 -11.707031 14.59375 -4.960938 14.835938 -4.5625 C 15.078125 -4.167969 17.878906 0.441406 17.878906 0.441406 L 26.367188 0.683594 C 26.367188 0.683594 27.25 -32.714844 26.960938 -32.78125 C 23.433594 -33.597656 21.164062 -33.398438 21.164062 -33.398438 C 21.164062 -33.398438 20.171875 -33.355469 20.0625 -33.070312 Z M 19.886719 -14.042969 "/></g></g></g><g fill="#fad000" fill-opacity="1"><g transform="translate(93.56693, 51.243848)"><g><path d="M 3 -9.964844 C 1.609375 -7.78125 2.359375 -0.285156 2.359375 -0.285156 C 3.527344 0.0429688 11.859375 0.773438 14.992188 -0.308594 C 14.992188 -0.308594 15.808594 -5.3125 15.367188 -8.113281 C 14.769531 -8.15625 12.410156 -8.265625 11.839844 -8.332031 C 11.972656 -12.964844 12.148438 -19.597656 12.214844 -23.480469 C 12.832031 -23.546875 15.695312 -23.65625 16.246094 -23.675781 C 16.6875 -26.476562 15.871094 -33.464844 15.871094 -33.464844 C 12.742188 -34.546875 3.527344 -33.820312 2.359375 -33.488281 C 2.359375 -33.488281 2.535156 -22.863281 3 -22.488281 L 3.394531 -22.179688 L 6.328125 -22.089844 C 6.21875 -18.078125 6.304688 -9.941406 6.304688 -9.941406 Z M 3 -9.964844 "/></g></g></g><g fill="#fad000" fill-opacity="1"><g transform="translate(112.809001, 51.243848)"><g><path d="M 3.019531 -34.148438 C 3.019531 -34.148438 -0.175781 -9.875 5.554688 1.035156 C 5.554688 1.035156 18.101562 0 23.589844 -0.660156 L 23.722656 -6.746094 L 26.851562 -6.988281 L 26.34375 -12.808594 C 20.546875 -13.335938 14.550781 -12.148438 14.550781 -12.148438 L 14.75 -9.390625 L 17.109375 -9.238281 L 17.285156 -5.601562 C 16.578125 -5.578125 15.742188 -5.554688 14.683594 -5.554688 C 14.265625 -5.554688 10.097656 -5.664062 9.765625 -6.171875 C 9.589844 -6.546875 8.882812 -13.933594 8.882812 -13.933594 C 8.882812 -13.933594 8.6875 -15.320312 9.546875 -16.535156 C 10.296875 -17.59375 19.046875 -17.238281 20.480469 -17.503906 C 20.480469 -17.4375 20.503906 -17.4375 20.523438 -17.503906 L 20.480469 -17.503906 C 20.4375 -17.878906 21.007812 -21.230469 21.007812 -21.230469 C 21.007812 -23.214844 20.878906 -30.972656 20.722656 -33.023438 C 16.886719 -33.464844 6.855469 -34.632812 3.019531 -34.148438 Z M 3.019531 -34.148438 "/></g></g></g><g fill="#fad000" fill-opacity="1"><g transform="translate(140.162278, 51.243848)"><g><path d="M 3.726562 -32.582031 C 2.691406 -22.199219 1.742188 -12.851562 1.191406 -1.566406 L 1.941406 -0.726562 L 12.542969 -0.199219 L 12.875 -6.988281 L 16.863281 -6.722656 C 17.703125 -0.925781 17.527344 -1.941406 17.921875 -0.507812 C 19.753906 -0.441406 22.640625 -0.550781 24.226562 -0.550781 C 23.171875 -11.617188 21.582031 -21.605469 20.304688 -32.628906 C 18.164062 -32.828125 9.214844 -33.929688 3.726562 -32.582031 Z M 11.617188 -12.632812 L 11.507812 -19.089844 C 11.507812 -19.089844 11.355469 -19.773438 16.621094 -19.398438 L 17.0625 -12.324219 Z M 11.617188 -12.632812 "/></g></g></g><g fill="#fad000" fill-opacity="1"><g transform="translate(165.664084, 51.243848)"><g><path d="M 17.921875 -25.949219 L 13.007812 -32.605469 C 10.363281 -34.039062 5.289062 -33.398438 5.289062 -33.398438 L 4.1875 -33.070312 C 4.1875 -33.070312 3.617188 -10.273438 4.34375 -0.792969 L 5.09375 0.21875 L 12.214844 0.683594 L 12.917969 0.464844 C 12.917969 0.464844 13.050781 -4.253906 13.027344 -4.71875 C 13.027344 -5.203125 12.785156 -13.25 12.785156 -13.25 L 17.238281 -7.097656 L 22.113281 -10.738281 L 22.289062 0.660156 L 28.351562 0.242188 C 28.351562 0.242188 29.234375 -31.171875 28.945312 -31.238281 C 25.417969 -32.054688 22.488281 -31.855469 22.488281 -31.855469 L 21.382812 -31.527344 Z M 17.921875 -25.949219 "/></g></g></g><g fill="#fad000" fill-opacity="1"><g transform="translate(197.51379, 51.243848)"><g><path d="M 25.308594 -24.558594 C 26.433594 -28.019531 25.417969 -33.003906 25.417969 -33.003906 L 24.03125 -33.089844 L 5.113281 -32.605469 C 5.113281 -32.605469 4.300781 -30.84375 4.210938 -29.429688 C 4.121094 -28.019531 3.992188 -5.621094 4.980469 -2.976562 C 5.46875 -1.675781 5.910156 -0.332031 6.394531 -0.21875 C 6.878906 -0.109375 12.476562 0.332031 19.664062 0.265625 C 26.851562 0.199219 25.265625 0.375 25.265625 0.375 L 25.042969 -5.886719 C 25.042969 -5.886719 24.007812 -6.570312 24.050781 -6.527344 C 24.097656 -6.480469 24.667969 -6.4375 24.667969 -6.4375 L 13.910156 -6.527344 L 13.359375 -7.121094 L 13.515625 -12.699219 C 20.699219 -12.765625 24.382812 -13.027344 24.382812 -13.027344 L 24.382812 -15.761719 C 24.382812 -15.761719 24.007812 -17.988281 24.050781 -17.945312 C 24.097656 -17.902344 21.363281 -17.855469 21.363281 -17.855469 L 15.652344 -17.835938 C 14.683594 -20.570312 14.945312 -23.917969 14.945312 -23.917969 C 23.855469 -24.359375 25.308594 -24.558594 25.308594 -24.558594 Z M 25.308594 -24.558594 "/></g></g></g><g fill="#fad000" fill-opacity="1"><g transform="translate(226.894868, 51.243848)"><g><path d="M 26.742188 -0.550781 C 27.203125 -0.75 27.691406 -11.726562 27.691406 -11.726562 L 27.335938 -12.101562 L 8.6875 -13.09375 L 8.996094 -16.183594 C 8.996094 -16.183594 23.964844 -16.070312 24.472656 -16.183594 C 24.957031 -16.269531 24.382812 -32.871094 23.964844 -32.957031 C 22.839844 -33.179688 4.628906 -31.988281 4.234375 -31.679688 C 4.1875 -31.65625 3.617188 -30.863281 3.617188 -30.863281 C 2.578125 -29.496094 2.292969 -11.132812 2.535156 -11.132812 C 2.535156 -11.132812 5.777344 -10.164062 14.21875 -9.746094 C 14.042969 -8.378906 13.734375 -6.503906 13.734375 -6.503906 C 13.226562 -6.503906 3.945312 -7.78125 3.945312 -7.78125 C 3.878906 -7.738281 3.4375 -6.964844 3.4375 -6.964844 C 3.4375 -6.964844 3.460938 -1.675781 3.8125 -0.992188 Z M 26.742188 -0.550781 "/></g></g></g><g fill="#fad000" fill-opacity="1"><g transform="translate(256.01145, 51.243848)"><g><path d="M 4.078125 -31.394531 C 4.078125 -31.394531 4.476562 -1.210938 4.542969 -1.167969 C 4.5625 -1.144531 5.554688 -0.75 5.621094 -0.726562 C 5.6875 -0.707031 11.882812 -0.441406 11.882812 -0.441406 C 11.816406 -0.441406 12.367188 -12.589844 12.367188 -12.589844 C 12.367188 -12.589844 16.554688 -12.699219 16.554688 -12.632812 C 16.554688 -12.566406 16.996094 -1.015625 16.996094 -0.660156 C 16.996094 -0.308594 26.101562 0 26.101562 0 L 25.640625 -32.519531 C 22.664062 -34.171875 15.519531 -33.179688 15.519531 -33.179688 L 15.210938 -23.609375 L 15.101562 -20.128906 L 10.625 -19.972656 C 10.625 -19.972656 10.25 -20.390625 10.25 -20.503906 L 10.382812 -31.855469 C 8.023438 -32.296875 4.078125 -31.394531 4.078125 -31.394531 Z M 4.078125 -31.394531 "/></g></g></g><g fill="#fad000" fill-opacity="1"><g transform="translate(284.885578, 51.243848)"><g><path d="M 4.496094 -1.277344 L 28.128906 -0.417969 C 28.128906 -0.417969 29.234375 -32.273438 28.945312 -32.339844 C 25.417969 -33.15625 23.148438 -32.957031 23.148438 -32.957031 L 22.046875 -32.628906 C 22.046875 -32.628906 21.757812 -21.648438 21.847656 -11.617188 L 16.226562 -11.242188 C 16.226562 -12.542969 16.734375 -27.535156 16.644531 -31.152344 C 15.453125 -31.460938 7.386719 -31.703125 4.453125 -31.503906 C 4.121094 -26.609375 4.234375 -3.746094 4.078125 -2.050781 Z M 4.496094 -1.277344 "/></g></g></g><g fill="#fad000" fill-opacity="1"><g transform="translate(316.33854, 51.243848)"><g><path d="M 27.136719 -16.6875 L 22.289062 -19.179688 C 22.796875 -19.6875 24.734375 -21.140625 25.242188 -21.648438 C 27.050781 -25.792969 24.976562 -32.695312 24.976562 -32.695312 L 22.355469 -33.089844 C 19.289062 -33.136719 10.558594 -34.4375 4.386719 -32.78125 L 4.078125 -32.429688 C 4.011719 -32.363281 4.386719 -10.25 4.429688 -1.277344 L 16.203125 -0.550781 L 25.15625 -0.773438 L 25.949219 -1.191406 C 29.34375 -9.921875 27.136719 -16.6875 27.136719 -16.6875 Z M 9.414062 -21.449219 C 8.949219 -23.171875 9.304688 -27.25 9.304688 -27.25 C 9.304688 -27.25 13.910156 -27.558594 14.636719 -27.558594 C 16.203125 -25.882812 15.851562 -23.191406 14.636719 -21.140625 Z M 10.40625 -8.90625 C 9.808594 -11.109375 10.273438 -16.445312 10.273438 -16.445312 C 10.273438 -16.445312 16.269531 -16.84375 17.195312 -16.84375 C 19.246094 -14.636719 18.761719 -11.15625 17.195312 -8.507812 Z M 10.40625 -8.90625 "/></g></g></g><g fill="#fad000" fill-opacity="1"><g transform="translate(346.314734, 51.243848)"><g><path d="M 2.691406 -32.40625 C 2.160156 -21.804688 4.542969 0.925781 4.542969 0.925781 L 9.480469 0.484375 L 11.15625 -0.835938 L 14.726562 -33.246094 C 8.621094 -33.882812 2.691406 -32.40625 2.691406 -32.40625 Z M 11.289062 6.964844 C 11.289062 6.769531 11.289062 6.589844 11.175781 6.414062 C 10.625 5.160156 9.632812 4.917969 8.265625 4.917969 C 6.65625 4.917969 3.96875 5.621094 3.96875 7.496094 C 3.96875 9.191406 5.84375 10.230469 7.339844 10.230469 C 8.996094 10.230469 11.289062 8.621094 11.289062 6.964844 Z M 11.289062 6.964844 "/></g></g></g><path stroke-linecap="butt" transform="matrix(0.75, 0, 0, 0.75, -15.728467, 12.015417)" fill="none" stroke-linejoin="miter" d="M 61.070253 16.40132 L 54.512961 7.526319 C 50.986919 5.614861 44.226501 6.469027 44.226501 6.469027 L 42.757751 6.906527 C 42.757751 6.906527 41.992126 37.302363 42.960876 49.942989 L 43.960876 51.291948 L 53.455669 51.91174 L 54.398377 51.614864 C 54.398377 51.614864 54.575461 45.328406 54.544211 44.708614 C 54.544211 44.062781 54.221294 33.333613 54.221294 33.333613 L 60.158794 41.536739 L 66.653587 36.682572 L 66.887962 51.88049 L 74.971296 51.323198 C 74.971296 51.323198 76.148379 9.437778 75.768171 9.349236 C 71.065045 8.260694 67.153587 8.526319 67.153587 8.526319 L 65.684836 8.963819 Z M 83.637963 37.713822 C 81.783796 40.62528 82.783796 50.620073 82.783796 50.620073 C 84.341088 51.057573 95.450464 52.026323 99.627548 50.588823 C 99.627548 50.588823 100.716089 43.916947 100.127548 40.182572 C 99.330673 40.12528 96.184839 39.979447 95.424422 39.890905 C 95.601506 33.713821 95.835881 24.870071 95.924422 19.692987 C 96.747339 19.604445 100.565048 19.458612 101.299423 19.43257 C 101.887964 15.698195 100.804631 6.380486 100.804631 6.380486 C 96.627547 4.937777 84.341088 5.906527 82.783796 6.349236 C 82.783796 6.349236 83.018171 20.515904 83.637963 21.015904 L 84.164005 21.427362 L 88.075463 21.547154 C 87.92963 26.896112 88.044213 37.745072 88.044213 37.745072 Z M 131.809842 32.276321 C 131.809842 32.276321 128.929633 25.192987 128.664008 24.604446 C 128.398383 24.015904 122.460883 12.021111 122.460883 12.021111 L 122.429633 11.99507 C 117.726507 10.906528 111.762965 11.172153 111.762965 11.172153 L 110.289007 11.609653 C 110.289007 11.609653 109.52859 37.302363 110.49734 49.942989 L 111.49734 51.291948 L 118.934841 51.614864 L 119.872341 51.323198 C 119.872341 51.323198 120.049424 45.328406 120.023383 44.708614 C 120.023383 44.094031 119.695258 35.390905 119.695258 35.390905 C 119.695258 35.390905 124.75255 44.385697 125.075466 44.916947 C 125.398383 45.442989 129.132758 51.588823 129.132758 51.588823 L 140.450468 51.91174 C 140.450468 51.91174 141.627551 7.380486 141.242134 7.291944 C 136.539009 6.203402 133.512967 6.469027 133.512967 6.469027 C 133.512967 6.469027 132.19005 6.526319 132.044217 6.906527 Z M 147.78901 37.713822 C 145.940051 40.62528 146.940051 50.620073 146.940051 50.620073 C 148.497343 51.057573 159.606719 52.026323 163.783803 50.588823 C 163.783803 50.588823 164.867136 43.916947 164.278594 40.182572 C 163.486928 40.12528 160.341094 39.979447 159.575469 39.890905 C 159.752552 33.713821 159.986927 24.870071 160.075469 19.692987 C 160.898386 19.604445 164.721303 19.458612 165.455678 19.43257 C 166.04422 15.698195 164.955678 6.380486 164.955678 6.380486 C 160.783803 4.937777 148.497343 5.906527 146.940051 6.349236 C 146.940051 6.349236 147.174426 20.515904 147.78901 21.015904 L 148.32026 21.427362 L 152.231719 21.547154 C 152.080677 26.896112 152.200469 37.745072 152.200469 37.745072 Z M 173.476512 5.469027 C 173.476512 5.469027 169.216095 37.833613 176.856721 52.38049 C 176.856721 52.38049 193.58068 51.000281 200.903597 50.120073 L 201.075472 42.005489 L 205.252556 41.682572 L 204.575473 33.922155 C 196.846305 33.213821 188.851513 34.802363 188.851513 34.802363 L 189.11193 38.479447 L 192.257763 38.682572 L 192.492138 43.53153 C 191.554638 43.56278 190.434847 43.59403 189.023388 43.59403 C 188.466096 43.59403 182.914013 43.448197 182.471304 42.771114 C 182.236929 42.271114 181.294221 32.422155 181.294221 32.422155 C 181.294221 32.422155 181.028596 30.573196 182.174429 28.953404 C 183.174429 27.541946 194.846305 28.015904 196.757764 27.661738 C 196.757764 27.750279 196.783805 27.750279 196.815055 27.661738 L 196.757764 27.661738 C 196.700472 27.161737 197.460889 22.692987 197.460889 22.692987 C 197.460889 20.047154 197.283806 9.698194 197.080681 6.969028 C 191.966097 6.380486 178.591096 4.823194 173.476512 5.469027 Z M 210.887973 7.552361 C 209.507765 21.40132 208.24214 33.864863 207.507765 48.911739 L 208.507765 50.031531 L 222.643183 50.734656 L 223.085891 41.682572 L 228.408808 42.036739 C 229.523391 49.765906 229.289016 48.411739 229.820267 50.323198 C 232.257767 50.411739 236.106725 50.265906 238.226517 50.265906 C 236.815059 35.510697 234.695267 22.192987 232.992142 7.495069 C 230.143183 7.229444 218.205682 5.760694 210.887973 7.552361 Z M 221.408807 34.15653 L 221.262974 25.541946 C 221.262974 25.541946 221.059849 24.635696 228.085891 25.130487 L 228.669225 34.567988 Z M 263.820269 16.40132 L 257.262977 7.526319 C 253.736935 5.614861 246.976518 6.469027 246.976518 6.469027 L 245.507768 6.906527 C 245.507768 6.906527 244.742143 37.302363 245.710893 49.942989 L 246.710893 51.291948 L 256.205685 51.91174 L 257.148394 51.614864 C 257.148394 51.614864 257.325477 45.328406 257.294227 44.708614 C 257.294227 44.062781 256.97131 33.333613 256.97131 33.333613 L 262.908811 41.536739 L 269.403603 36.682572 L 269.637978 51.88049 L 277.72652 51.323198 C 277.72652 51.323198 278.898396 9.437778 278.518187 9.349236 C 273.815062 8.260694 269.903603 8.526319 269.903603 8.526319 L 268.434853 8.963819 Z M 316.132774 18.255487 C 317.632774 13.640903 316.278607 6.995069 316.278607 6.995069 L 314.429648 6.880486 L 289.210896 7.526319 C 289.210896 7.526319 288.122355 9.875278 288.002563 11.760695 C 287.88798 13.640903 287.710896 43.505489 289.033813 47.031531 C 289.679646 48.765906 290.268188 50.557573 290.914021 50.708614 C 291.559855 50.854448 299.028605 51.442989 308.606731 51.354448 C 318.190065 51.265906 316.075482 51.500281 316.075482 51.500281 L 315.778607 43.151322 C 315.778607 43.151322 314.398398 42.239864 314.460898 42.297155 C 314.51819 42.359655 315.283815 42.416947 315.283815 42.416947 L 300.934856 42.297155 L 300.200481 41.505489 L 300.408814 34.067988 C 309.992148 33.979446 314.898398 33.62528 314.898398 33.62528 L 314.898398 29.984654 C 314.898398 29.984654 314.398398 27.015904 314.460898 27.073196 C 314.51819 27.130487 310.872356 27.192987 310.872356 27.192987 L 303.257773 27.219029 C 301.966106 23.573196 302.320272 19.104445 302.320272 19.104445 C 314.195273 18.521112 316.132774 18.255487 316.132774 18.255487 Z M 357.221319 50.265906 C 357.835902 50.000281 358.481735 35.359655 358.481735 35.359655 L 358.012985 34.864863 L 333.143192 33.541946 L 333.55465 29.422154 C 333.55465 29.422154 353.512985 29.573196 354.190068 29.422154 C 354.835902 29.307571 354.075485 7.172153 353.512985 7.057569 C 352.018193 6.760694 327.736941 8.349236 327.205691 8.760694 C 327.148399 8.791944 326.382774 9.849236 326.382774 9.849236 C 325.002566 11.672153 324.622358 36.15653 324.945274 36.15653 C 324.945274 36.15653 329.262983 37.448197 340.523401 38.005488 C 340.289026 39.828405 339.877567 42.328405 339.877567 42.328405 C 339.200484 42.328405 326.825483 40.62528 326.825483 40.62528 C 326.736941 40.682572 326.148399 41.713822 326.148399 41.713822 C 326.148399 41.713822 326.179649 48.765906 326.648399 49.677364 Z M 365.825486 9.140903 C 365.825486 9.140903 366.351528 49.385698 366.440069 49.442989 C 366.471319 49.469031 367.794236 50.000281 367.882778 50.031531 C 367.971319 50.057573 376.231737 50.411739 376.231737 50.411739 C 376.143195 50.411739 376.87757 34.213821 376.87757 34.213821 C 376.87757 34.213821 382.460904 34.067988 382.460904 34.15653 C 382.460904 34.245071 383.049446 49.646114 383.049446 50.120073 C 383.049446 50.588823 395.190072 51.000281 395.190072 51.000281 L 394.57028 7.640903 C 390.60153 5.437777 381.080696 6.760694 381.080696 6.760694 L 380.669237 19.515904 L 380.523404 24.161737 L 374.554653 24.370071 C 374.554653 24.370071 374.054653 23.807571 374.054653 23.661737 L 374.231737 8.526319 C 371.085903 7.937778 365.825486 9.140903 365.825486 9.140903 Z M 404.882781 49.297156 L 436.3932 50.442989 C 436.3932 50.442989 437.86195 7.963819 437.481742 7.880486 C 432.778616 6.791944 429.747366 7.057569 429.747366 7.057569 L 428.278616 7.495069 C 428.278616 7.495069 427.898408 22.135695 428.012991 35.510697 L 420.518199 36.010697 C 420.518199 34.276321 421.195282 14.286736 421.07549 9.463819 C 419.492157 9.052361 408.731739 8.729444 404.820281 8.995069 C 404.382781 15.521112 404.528614 46.005489 404.320281 48.265906 Z M 477.007787 28.750279 L 470.539036 25.427362 C 471.21612 24.750279 473.804661 22.812779 474.476536 22.135695 C 476.887995 16.609653 474.127578 7.406528 474.127578 7.406528 L 470.627578 6.880486 C 466.544244 6.817986 454.903618 5.083611 446.669243 7.291944 L 446.257784 7.760694 C 446.169243 7.849236 446.669243 37.333613 446.731743 49.297156 L 462.424452 50.265906 L 474.361953 49.969031 L 475.419245 49.411739 C 479.945287 37.771113 477.007787 28.750279 477.007787 28.750279 Z M 453.372368 22.40132 C 452.757785 20.104445 453.226535 14.666945 453.226535 14.666945 C 453.226535 14.666945 459.372369 14.255486 460.341119 14.255486 C 462.424452 16.489862 461.955702 20.078404 460.341119 22.812779 Z M 454.695285 39.12528 C 453.903618 36.182572 454.518202 29.073196 454.518202 29.073196 C 454.518202 29.073196 462.512994 28.541946 463.747369 28.541946 C 466.481744 31.479446 465.835911 36.12528 463.747369 39.651322 Z M 484.377579 7.791944 C 483.669246 21.927362 486.846329 52.234656 486.846329 52.234656 L 493.429663 51.646114 L 495.664038 49.880489 L 500.424455 6.672152 C 492.28383 5.823194 484.377579 7.791944 484.377579 7.791944 Z M 495.841122 60.28674 C 495.841122 60.026324 495.841122 59.78674 495.695288 59.552365 C 494.960913 57.88049 493.637996 57.557573 491.81508 57.557573 C 489.669246 57.557573 486.080704 58.495073 486.080704 60.995074 C 486.080704 63.25549 488.580704 64.640907 490.580704 64.640907 C 492.78383 64.640907 495.841122 62.495074 495.841122 60.28674 Z M 495.841122 60.28674 " stroke="#0d82bb" stroke-width="1.204112" stroke-opacity="1" stroke-miterlimit="4"/></svg>